<svg width="223" height="45" viewBox="0 0 223 45" fill="none" xmlns="http://www.w3.org/2000/svg">
<path d="M111.5 45C106.605 45 102.299 43.3093 98.5801 39.9279C94.86 36.545 93 31.9682 93 26.1975C93 22.5669 94.3875 18.6306 97.1625 14.3885C99.9375 10.1465 104.139 5.56051 109.766 0.630573C109.997 0.439491 110.267 0.286624 110.575 0.171975C110.883 0.0573249 111.192 0 111.5 0C111.808 0 112.117 0.0573249 112.425 0.171975C112.733 0.286624 113.003 0.439491 113.234 0.630573C118.861 5.56051 123.063 10.1465 125.838 14.3885C128.613 18.6306 130 22.5669 130 26.1975C130 31.9682 128.14 36.545 124.42 39.9279C120.701 43.3093 116.395 45 111.5 45ZM112.136 38.121C112.598 38.0828 112.994 37.9017 113.322 37.5776C113.649 37.252 113.812 36.8599 113.812 36.4013C113.812 35.8662 113.639 35.4367 113.292 35.1126C112.945 34.787 112.502 34.6433 111.962 34.6815C110.382 34.7962 108.706 34.3666 106.933 33.3929C105.16 32.4176 104.042 30.6497 103.58 28.0892C103.503 27.6688 103.3 27.3248 102.972 27.0573C102.645 26.7898 102.269 26.656 101.845 26.656C101.306 26.656 100.863 26.8563 100.516 27.2568C100.169 27.6589 100.053 28.1274 100.169 28.6624C100.824 32.1401 102.366 34.6242 104.794 36.1146C107.222 37.6051 109.669 38.2739 112.136 38.121Z" fill="#45498C"/>
</svg>
