<svg xmlns="http://www.w3.org/2000/svg" width="204" height="48" fill="none" xmlns:v="https://vecta.io/nano"><path d="M152.305 47.747c0-.139.05-.227.111-.194s.186-.099.278-.291c.098-.203.248-.351.359-.351.15 0 .162-.029.058-.139s-.099-.149.014-.182.111-.082-.024-.224-.136-.191-.028-.223c.078-.023.142-.085.142-.138s-.051-.069-.112-.036-.084-.005-.045-.093.009-.154-.062-.154c-.095 0-.097-.054-.008-.198.097-.159.086-.198-.058-.198s-.151-.025-.036-.133c.147-.137.433-.014.396.17-.01.048.042.106.115.13.088.028.111-.032.068-.177-.037-.121-.02-.196.037-.167s.205.02.331-.02c.18-.058.127-.088-.256-.145-.302-.045-.484-.125-.484-.212 0-.077-.099-.14-.221-.14s-.291-.087-.376-.194c-.154-.191-.733-.451-.921-.414-.053.011-.385-.044-.739-.122s-.963-.173-1.354-.211-.739-.11-.774-.159-.176-.09-.313-.092-.556-.134-.931-.295-.769-.294-.875-.295-.224-.047-.263-.101-.012-.099.059-.099c.157 0 .1-.443-.059-.453-.062-.004-.338-.063-.612-.131s-.623-.097-.776-.064-.44.017-.639-.036a13.91 13.91 0 0 0-.995-.205c-.958-.163-1.47-.3-1.47-.392s5.834-.029 7.279.083c.761.059 1.051.043 1.365-.076l.455-.165c.031-.008.206-.068.389-.134s.413-.092.512-.059 1.612.077 3.363.096l3.697.134c.281.054 1.125.15 1.874.214s1.461.161 1.58.217.468.081.773.055.584-.008.617.04.109.061.167.029.106-.01.106.048.039.096.086.085c.189-.044 1.165.137 1.165.215 0 .097.859.257 1.184.221.12-.013.314.066.431.176s.301.205.408.212l.877.033a6.63 6.63 0 0 1 1.138.136c.25.063.648.14.884.17s.402.095.368.143c-.106.149.147.188 2.123.328.105.007.182.056.171.107s.082.12.207.152a2.46 2.46 0 0 1 .514.228c.207.122.638.188 1.536.234l1.511.053c.144-.006.42.061.612.147.198.089.38.118.419.066.098-.127.499-.248.411-.125-.092.13.018.124.321-.019.611-.289 3.505-.069 3.806.289.094.111.104.186.029.207-.065.019-.118.074-.118.122s.072.064.159.035.193-.006.234.053c.111.155-.571.133-.939-.031-.169-.075-.537-.17-.819-.21l-.71-.105c-.11-.018-.199.026-.199.098 0 .092-.142.12-.484.097-.373-.026-.437-.01-.282.069.111.056.176.138.145.182-.068.095.568.191 1.799.271.691.045.917.027.994-.078.072-.099.099-.102.1-.012.003.182.687.153.932-.04.114-.09.208-.122.208-.07 0 .057.369.067.938.026l1.791-.123c.469-.03 1.021-.106 1.227-.17s.501-.094.656-.068.316.002.355-.054c.044-.062.014-.07-.077-.021s-.121.041-.076-.023c.086-.121.628-.23 1.27-.256.379-.015.457-.054.467-.231.011-.19-.067-.221-.739-.289l-1.036-.055-.284.022.302-.143c.523-.248 1.033-.352 2.029-.416.532-.034 1.3-.134 1.706-.224.935-.205 4.18-.22 4.322-.021.048.069.148.092.222.053.19-.102 2.283-.137 2.212-.036-.067.094-.05.096 1.438.135 1.05.028 1.493.062 3.065.234.717.079 1.136.034 1.546-.166.172-.084.135-.131-.278-.358-.334-.183-.741-.291-1.356-.359l-2.771-.403c-.431-.085-.517-.137-.472-.288.033-.108.121-.162.215-.131.088.029.159.004.159-.056s-.089-.11-.199-.111c-.17-.001-.174-.016-.028-.098.108-.061.12-.097.032-.098-.077-.001-.109-.068-.073-.151.046-.104-.068-.201-.373-.319l-.439-.17 1.111-.06 1.791-.05.68-.002c0-.007-.102-.115-.227-.241s-.227-.198-.227-.161-.116.001-.257-.079-.635-.197-1.099-.26-1.046-.176-1.293-.252a3.67 3.67 0 0 0-.863-.142c-.633-.005-2.229-.367-1.767-.4.057-.004.206-.028.331-.053l.367-.072c.26-.05.276-.146.036-.213-.132-.036-.373-.174-.537-.306s-.411-.24-.551-.24-.312-.061-.383-.136c-.107-.112-.013-.148.526-.201l.997-.113c.447-.063 2.223-.054 2.345.012.165.089 1.465.131 1.465.047 0-.044-.077-.135-.17-.203s-.171-.17-.171-.227.034-.074.075-.038.143.015.227-.045.153-.068.153-.016.077.095.17.095c.274 0 .199-.106-.177-.251-.422-.163-.361-.231.319-.36.621-.118.739-.302.294-.459-.46-.162-2.624-.372-3.861-.375l-1.356-.069-.302-.066.324-.231c.178-.127.411-.233.516-.235.27-.005.352-.163.207-.398-.152-.248-1.142-.695-1.539-.695-.168 0-.265-.043-.225-.099s.164-.099.279-.099c.193 0 .407-.247.365-.421s1.761.021 1.912.209c.116.144 3.02.52 3.305.428l.272-.088-.264-.123c-.146-.068-1.091-.243-2.1-.39-1.847-.268-2.297-.458-1.086-.458.372 0 .714-.057.825-.137.158-.113.377-.117 1.298-.019l2.91.366c.153.041.199.012.17-.109-.041-.176-.393-.382-.944-.553-.475-.148-.18-.278.427-.189l.99.14.512.07-.426-.356-.427-.391c0-.019.318-.067.705-.105.918-.09 1.408-.314 1.402-.64-.003-.172-.739-.402-1.424-.445a17.3 17.3 0 0 1-1.422-.19c-.5-.087-1.268-.178-1.706-.202l-1.479-.149-2.955-.494c-.062-.031.117-.105.398-.164s.51-.166.51-.238c0-.167-1.146-.529-2.186-.691-.506-.079-.881-.196-1.003-.314-.11-.106-.491-.239-.867-.303-.855-.146-.832-.285.097-.584.199-.064.339-.168.31-.231-.064-.143-.591-.362-.872-.362-.117 0-.18-.045-.141-.099s.451-.099.916-.099c.767 0 1.075-.101.704-.232-.331-.116 1.329-.053 2.148.082 1.021.168 1.577.098 1.577-.2 0-.137-.297-.317-1.117-.677-.771-.338-1.07-.516-.966-.574.196-.11.002-.223-.76-.443-1.077-.31-1.931-.829-1.819-1.106.077-.189-.343-.292-2.077-.51-.862-.108-1.725-.266-1.918-.35s-.601-.179-.908-.211c-.845-.088-2.462-.445-2.715-.598-.123-.075-.379-.14-.568-.143s-.447-.045-.572-.092c-.181-.068-.135-.088.227-.1.97-.031 1.484-.114 1.613-.261.087-.1.224-.131.398-.089.227.054.236.048.063-.046a.76.76 0 0 0-.398-.082.66.66 0 0 1-.35-.055c-.091-.049-.268-.03-.434.047-.218.102-.328.105-.495.014-.137-.074-.241-.081-.284-.02-.038.053-.361.099-.717.101s-.775.067-.931.145c-.341.17-.455.182-.455.05 0-.054.08-.099.177-.099s.15-.04.115-.088.045-.112.176-.142.216-.113.189-.185c-.05-.132-.56-.21-2.135-.325-1.424-.104-1.82-.16-1.82-.257 0-.051.077-.093.17-.093s.171-.088.171-.198c0-.145-.076-.198-.284-.198-.327 0-.383-.153-.081-.221.112-.026.687-.023 1.279.007 1.724.085 2.413.057 2.774-.113.183-.086.366-.139.406-.118s.052-.086.026-.24c-.057-.335.103-.387 1.271-.415.699-.017.753-.032.51-.141-.399-.18-1.865-.439-2.739-.484-.447-.023-.869-.104-1.02-.197-.323-.197-.518-.2-.737-.009-.098.086-.372.148-.645.146-.843-.004-3.988-.282-4.415-.391-.399-.102-.411-.118-.327-.443.053-.205.041-.378-.03-.44-.081-.071-.078-.145.011-.238.272-.285-.074-.344-1.734-.296-1.289.037-1.692.017-1.953-.099-.277-.123-1.525-.293-2.377-.323a9.73 9.73 0 0 1-.796-.097l-.569-.089.512-.072c.282-.04 1.126-.049 1.877-.021l2.388.037c.563-.007 1.663.059 2.445.148l3.829.295c.24-.001.468.037.507.084s.232.092.427.099.355.05.355.095.115.054.256.019c.2-.049.219-.04.085.041-.147.09-.143.104.028.106.11.001.199.051.199.112 0 .068.109.049.281-.05.311-.178.448-.206.353-.072-.034.048.039.111.164.139s.226.002.226-.063.18-.115.427-.115c.271 0 .416.043.399.119-.018.082.105.105.394.072.473-.053.94-.284.943-.466.001-.078.041-.068.112.027.085.115.11.086.112-.13.002-.357-.186-.662-.407-.662-.096 0-.142-.045-.103-.099s-.023-.102-.136-.107c-.375-.014-.613-.074-.866-.219-.227-.13-.761-.08-.761.071 0 .027.068.027.152-.002s.225.027.313.121c.138.148.138.16-.001.087-.125-.065-.143-.043-.082.097.048.109.022.214-.066.262-.217.12-.401.098-.203-.025.129-.08.063-.093-.266-.053-.241.029-.53.002-.645-.06-.157-.086-.248-.084-.374.007-.134.097-.184.086-.255-.056-.048-.097-.08-.209-.07-.25s-.054-.074-.143-.074-.181-.051-.204-.113-.194-.127-.377-.144-.391-.099-.461-.182-.169-.119-.219-.079-.06-.005-.021-.101c.088-.214-.13-.233-.224-.021-.059.135-.091.133-.28-.015-.202-.159-.214-.158-.215.021-.002.158-.02.165-.112.04-.165-.222-.141-.27.163-.336.193-.042.272-.124.259-.269-.02-.231-.416-.404-.872-.381-.426.022-.801-.106-.801-.272 0-.107-.113-.138-.427-.119-.458.029-1.229-.082-1.507-.218-.138-.067-.127-.085.057-.091l.796-.054c.967-.079 2.254-.076 2.718.005.318.056.42.047.363-.034-.049-.069-.018-.091.081-.058.093.031.244-.059.364-.219.147-.195.166-.284.068-.312-.092-.027-.07-.086.068-.18.187-.128.175-.136-.136-.088-.188.028-.277.025-.199-.007.288-.118.129-.24-.313-.24-.287 0-.456.046-.457.124-.001.091-.027.088-.099-.011-.062-.084-.125-.097-.169-.034-.077.108-.222.099-.577-.033a2.24 2.24 0 0 0-.595-.089c-.472-.008-.625-.254-.159-.254.185 0 .354-.064.391-.149.044-.1-.005-.149-.153-.149-.12 0-.259-.056-.309-.124-.13-.178-.594-.388-.713-.324-.056.03-.133.009-.173-.046s-.212-.101-.385-.101-.592-.072-.931-.161c-.537-.14-.585-.172-.366-.243.139-.045 1.089-.076 2.11-.069l2.007-.066c.085-.046.182-.033.226.03.092.129 3.627.226 3.715.103.031-.043.136-.053.233-.02.119.04.135.081.048.128-.07.038.028.069.218.069s.346-.043.346-.095.078-.038.173.031.21.094.255.055-.047-.155-.202-.258l-.283-.187.284.048c.25.042.257.036.057-.047-.328-.136-.867-.122-1.183.031-.308.149-.693.1-.693-.088 0-.087-.225-.125-.739-.128-.464-.002-.74.037-.74.105 0 .06-.064.036-.142-.053-.103-.117-.41-.18-1.109-.226-.531-.035-1.289-.126-1.684-.203s-.881-.144-1.081-.149a5.78 5.78 0 0 1-.931-.145c-.533-.127-.473-.132.967-.081l1.706.056a133.56 133.56 0 0 1 2.615.234l3.259.263c.447.017.789.064.761.105s.168.075.438.075.95.065 1.513.144c.966.135 3.236.275 2.928.18-.079-.024-.114-.085-.079-.135s-.079-.093-.255-.095-.498-.089-.717-.193l-.626-.28c-.411-.167-7.119-1.134-8.7-1.254l-3.014-.261-3.486-.292c-.728-.053-1.571-.161-1.872-.24-.395-.104-.569-.113-.625-.033-.072.101-1.269.074-2.717-.063l-1.535-.099c-1.123-.061-2.833-.267-3.79-.455-.27-.053-.539-.071-.598-.04s-.851-.041-1.761-.161c-1.346-.178-1.703-.196-1.914-.097s-.486.083-1.501-.092l-4.994-.854-1.615-.295c-.388-.077-.875-.14-1.081-.14s-.605-.064-.886-.142c-.475-.132-1.446-.279-4.038-.61l-2.956-.433-2.275-.351-1.479-.213c-1.327-.191-1.58-.188-1.844.026-.143.115-.26.26-.26.322s-.038.107-.085.101-.202-.006-.345 0c-.217.01-.241.042-.146.197.139.227.028.349-.181.198-.234-.17-.181-.017.089.253.141.142.426.269.687.307.382.056.426.087.303.216-.183.193-.028.205-7.316-.564l-1.99-.143-2.388-.152-2.104-.144c-.438-.022-.999-.085-1.246-.142s-1.229-.105-2.181-.109l-1.882-.05c-.204-.06-2.869-.182-3.503-.16-.281.01-.589.079-.684.155-.215.169-.76.186-3.299.102l-2.59-.211c-.459-.111-1.221-.142-3.242-.13-1.452.009-3.869-.018-5.37-.059-3.042-.083-2.88-.084-6.028.035l-5.004.014c-.313-.012-.479-.042-.37-.066s.199-.092.199-.149c0-.068-.319-.084-.938-.046l-3.44.158-3.924.202-5.971.394-8.473.356-2.843.1-1.763.059c-.438-.005-1.308.035-1.933.089s-2.651.117-4.502.141l-3.867.14c-.276.053-.904.121-1.396.15l-1.251.105c-.672.096-1.722.161-3.258.202l-4.606.305-.967.081-1.251.091-1.763.124-.967.091c-.031.017-.348.057-.704.09l-.813.116c-.092.031-.619.069-1.173.085-1.52.045-1.518.044-1.518.204 0 .082-.054.149-.12.149s-.083-.052-.038-.116c.056-.079.019-.095-.116-.05a1.71 1.71 0 0 1-.449.066c-.169 0-.256.064-.268.198-.02.237.041.248.269.05.238-.207.504-.192.424.025-.039.107-.027.131.032.063.066-.075.386-.09 1.006-.044 1.067.078 1.873.056 3.355-.089l1.706-.159.758-.091c.073-.021.163.03.199.112.049.111.157.133.416.083.407-.078.669-.108 1.754-.199l.864-.103c.08-.043 1.601-.05 3.685-.017 1.322.021 2.255-.036 2.95-.179.392-.081 3.134-.116 3.134-.04 0 .039-.345.103-.768.143l-.995.111c-.877.151-3.228.32-5.118.368-.438.011-.85.05-.916.087-.11.061-3.592.298-3.779.257-.044-.01-.465.013-.934.051l-3.042.195c-.168.006-.188.134-.034.217.111.06.968.073 1.744.028.237-.014.472-.084.523-.156.069-.097.264-.113.764-.063l.747.107c.042.022.154-.028.249-.111s.2-.112.233-.065c.064.091 2.36.052 3.025-.051.219-.034.605-.071.858-.082s.573-.073.711-.138c.201-.094.251-.091.251.015 0 .078.152.143.37.158a24.61 24.61 0 0 0 3.156-.015c.718-.052 1.024-.045.913.019-.448.262.393.39 1.703.261 1.161-.115 1.369-.121 1.871-.054.259.034.622.027.807-.016.487-.114 3.019-.315 4.146-.33l1.706-.08 1.82-.119 3.127-.197 3.722-.212c1.501-.06 1.682-.049 1.747.098.062.141.26.164 1.339.161l1.778.076.512.08-.853.11-1.251.108c-.219-.002-1.114.066-1.99.151l-3.696.264-2.357.158c-.139.026-1.291.091-2.559.144l-5.092.248-2.623.139-2.161.144-.391.119c-.125.041-.424.087-.665.102s-.496.098-.569.185c-.105.125-.401.162-1.439.183l-1.421.087c-.062.034-.497.087-.967.119l-5.516.305-2.957.204-2.843.206-8.643.438-2.193.161c-.643.035-1.196.102-1.229.148s.109.088.316.093l.697.028c.177.011.343-.011.37-.049s.239-.024.47.031.749.072 1.165.036c.409-.036 2.587-.083 4.839-.104l5.971-.103c1.84-.063 2.361-.024 1.154.085-.335.03-.633.077-.664.103-.081.071.335.245.68.286.402.047.529.172.185.183l-1.753.101-3.554.151c-1.876.053-2.075.075-2.075.232 0 .218-.458.269-3.217.362l-2.082.152c-.033.046-.284.084-.558.084-.934 0-.672.274.475.497.324.063.759.106.967.096 1.385-.067 1.022.128-.532.286l-1.933.163-1.763.147-2.388.164c-.963.044-1.458.107-1.535.195-.063.072-.469.159-.91.194s-.847.119-.91.185-.488.151-.944.188-.945.132-1.086.212c-.161.092-.652.162-1.33.189-1.461.059-2.606.171-2.67.26s.929.228 1.082.146c.063-.034.114-.019.114.033s-.179.123-.398.159c-.432.071-.514.194-.199.3.372.126-.148.324-1.318.504-.982.151-1.603.337-1.15.345.425.008-.231.182-.914.243-.406.036-.797.109-.87.161s-.456.141-.851.197c-1.099.154-1.087.278.034.355.419.029.802.114.917.203.162.126.359.141 1.08.082 1.466-.119 1.757-.096 1.977.158.108.124.174.257.147.296s-.394.101-.816.139-.818.104-.88.147-.357.109-.654.148c-.815.106-.648.246.294.246.459 0 .873.033.92.074s.524.074 1.06.074c.677 0 .989.038 1.023.124s-.088.124-.387.124c-.24 0-.615.041-.834.091s-.831.119-1.361.154-1.02.104-1.091.155-.158.067-.194.035-.185-.021-.331.024c-.204.064-.083.097.532.146.725.058 1.553.202 1.99.348.278.093-.154.194-1.45.341l-1.166.191c0 .032-.333.04-.739.018-.594-.033-.739-.013-.739.104 0 .18.36.473.578.471.134-.001.132-.018-.009-.098s-.14-.096.032-.098c.111-.001.233.068.27.152.058.131.263.146 1.39.102 1.411-.055 1.758.01 1.498.283-.435.457-2.211.947-3.432.947-.738 0-1.123.12-1.123.35 0 .115.182.145.881.143.485-.001 1.086-.049 1.336-.107s1.429-.125 2.62-.149c2.106-.044 2.165-.04 2.182.154s-.122.328-.366.362l-1.09.176-4.916.554c-1.48.083-1.985.196-1.832.412.035.049.112.063.172.031s.095 0 .077.073.057.125.167.118.173.021.143.063.119.105.331.14c.459.075.568.254.333.546-.125.156-.139.249-.049.342.147.154.051.259-.236.259-.115 0-.208.019-.208.041s-.034.119-.075.213c-.069.157.007.166.938.106l1.44-.125c.339-.047.426-.027.426.096 0 .085.082.195.183.244.26.127.104.698-.222.813-.233.082-.234.087-.018.099.227.013.227.013 0 .098-.222.083.088.119 1.251.143.485.01.853.144.853.309 0 .088.118.142.313.143a3.12 3.12 0 0 1 .571.062c.242.057.246.069.057.194-.111.073-.342.135-.513.136s-.649.159-1.061.35-.916.347-1.122.347c-.689 0-1.764.126-1.711.201.029.041-.034.068-.141.06s-.212.063-.234.157c-.052.218.62.594.966.541.139-.021.271.01.293.069.054.14 1.381.18 1.912.057.225-.052 1.39-.107 2.587-.122 2.025-.025 2.622.026 1.865.158l-.825.156a6.53 6.53 0 0 1-.995.105c-.266.002-.483.049-.483.103s-.08.099-.178.099-.283.049-.412.109c-.231.108-.231.11.036.226.467.203.322.394-.462.611-.402.111-.755.268-.785.347a.44.44 0 0 1-.154.202c-.174.099.034.405.231.339.099-.033.149-.033.111 0s.059.173.217.31c.207.181.421.254.773.266.268.009.466.045.441.081s.444.043 1.042.016c.87-.039 1.127-.019 1.279.102.212.167 1.329.236 1.911.118.222-.045.385-.031.433.037.042.06.198.109.346.109.342 0 .628.095.628.209 0 .049-.074.088-.165.088s-.208.068-.261.15c-.06.093-.505.219-1.171.332-1.314.223-2.281.563-2.19.771.035.08.137.121.226.091s.133-.014.098.035.071.228.235.398c.219.227.358.292.527.245.127-.035.2-.023.165.027s.114.095.332.1.755.087 1.194.18l.798.171-.254.236c-.14.13-.301.236-.359.236s-.281.073-.495.161c-.374.155-.383.171-.217.391.109.145.13.253.058.291-.063.034-.081.108-.041.164.047.066.108.055.172-.032s.13-.099.185-.033c.047.056.239.166.426.244l.341.143-.36.034c-.39.036-.598.291-.316.385.095.032.202.033.236.003s.233.029.441.13.573.217.811.256.501.131.585.204c.2.174.278.17 1.334-.066.948-.211 1.216-.192 1.605.118.22.175.308.183.902.088.78-.126 2.248-.142 2.164-.024-.032.045-.432.138-.888.206-1.163.173-1.293.21-1.103.313.331.178-1.151.599-2.599.738-.391.038-.736.103-.766.146s.052.197.183.342c.22.244.225.278.055.441-.101.097-.183.201-.183.23 0 .123 1.926-.054 2.559-.234.91-.259 2.754-.449 2.924-.3.09.078.091.146.003.238-.119.125-.301.178-1.818.532-.473.11-.711.216-.711.315 0 .126.134.139.844.083.541-.043.87-.03.917.036.04.056.01.102-.067.102s-.113.023-.081.051c.076.066 1.687-.228 1.847-.338.126-.086 1.787-.309 2.141-.287.11.007.199.068.199.136a.77.77 0 0 0 .059.258c.056.127-1.333.383-3.726.688-.36.046-.839.151-1.066.233s-.572.15-.768.151c-.515.001-1.255.197-1.135.301.055.048.748.1 1.539.116l1.42.045c-.01.009-.272.103-.581.209-.538.184-.551.197-.305.312.193.09.398.093.824.014.692-.129.783-.131.783-.015 0 .05-.153.12-.34.156-.622.119-.487.248.259.248.434 0 .873.063 1.086.156s.458.128.609.086c.324-.09 5.664-.124 5.602-.036-.132.186 1.36.185 2.633-.002l6.187-.608 2.616-.149 2.6-.238 1.478-.14c.04-.021.456-.067.925-.101l1.251-.105c.456-.048 2.531-.149 4.037-.196l3.867-.213 3.241-.096 3.696-.123c.626-.045 2.355-.077 3.844-.071 2.252.008 2.725.034 2.815.156s.123.125.21.008c.068-.092.214-.119.438-.08.185.032.392.01.46-.05s.293-.118.5-.129.478-.047.603-.079c.682-.176 1.392-.227 1.678-.121.23.085.803-.016.724-.127-.029-.041.519-.087 1.218-.101 1.882-.039 2.078-.057 2.291-.211.173-.125.19-.12.156.052-.026.131.016.181.132.158a2.74 2.74 0 0 1 .426-.037c.141-.001.256-.036.256-.078s.083-.104.183-.137c.133-.044.165-.019.115.094-.047.107-.024.131.073.077.078-.043.627-.092 1.221-.109l6.937-.017 5.196-.058c.387-.039.789-.043.894-.008.194.065 3.909.192 5.05.174.893-.015 1.905.443 1.342.606-.084.024-.026.094.142.172.156.072.312.168.347.214.126.166 1.091.259 1.365.131.173-.081.631-.11 1.351-.085l4.373.089 3.56.113c.152.033.798.067 1.435.076s1.261.065 1.386.127c.224.11 1.279.289 1.455.248.218-.051.622-.038.99.031.219.041.501.068.626.058l.455-.034c.125-.01.713.035 1.308.099l1.572.114c.27-.001.552.04.625.092s.3.125.504.163c.302.056.369.038.369-.099 0-.149.094-.16.825-.098.453.039 1.643.08 2.644.093l2.432.139.668.116c.031 0-.008.067-.086.149s-.315.149-.526.149-.384.019-.384.041-.031.112-.069.198c-.095.215.226.204.478-.016.143-.125.211-.138.246-.049.026.068.094.098.151.068s.104-.02.104.024.115.086.256.092l1.734.124 3.639.152 2.446.094c.529.101 3.443.336 5.004.403 2.892.125 5.085.485 5.537.91.142.133.391.24.57.245l4.413.288 1.463.147 1.351.155.613.094c.023 0 .041-.114.041-.253zm0-.901c0-.108.051-.116.223-.036.134.062.197.164.158.254-.051.115-.102.123-.223.036-.087-.063-.158-.177-.158-.254zm-19.163-1.474c-.445-.139-.434-.141.512-.093l2.843.235c0 .129-2.876.007-3.355-.142zm52.827-1.197c0-.021.077-.039.171-.039s.17.043.17.096-.077.07-.17.039-.171-.075-.171-.096zm-8.245-.336c-.04-.056.053-.099.214-.099s.316.045.354.099-.053.099-.214.099-.316-.045-.354-.099zm5.402-.507c0-.102.136-.112.389-.027.285.095.208.215-.105.162-.156-.026-.284-.087-.284-.135zm-64.352-.016c-.388-.094-.441-.13-.25-.17.303-.063 3.922.07 5.861.214.527.039-3.543.135-4.379.103a7.75 7.75 0 0 1-1.232-.148zm-3.942-.305c-.126-.026.105-.043.511-.039.971.011 1.355.102.74.175-.251.03-.583.022-.74-.017l-.511-.119zm72.578.029c-.234-.006-.233-.011.03-.103.31-.108.576-.054.576.116 0 .062-.081.086-.18.053s-.291-.063-.426-.066zm-74.287-.112c-.03-.027.172-.056.45-.065s.54.033.584.094c.055.078-.079.097-.45.065-.291-.025-.553-.068-.584-.094zm-88.933-1.17c-.044-.061.138-.095.477-.087.486.01.509.02.206.087-.498.11-.604.11-.682 0zm175.291-1.455c.083-.029.181-.025.218.008s-.029.056-.149.052c-.132-.005-.159-.028-.069-.06zm-1.343-.13c-.229-.064-.24-.08-.057-.082.125-.002.33.035.455.082.29.108-.009.108-.398 0zm-1.526.039c-.099-.033-.18-.14-.18-.238 0-.152.072-.17.483-.125.523.057.864.226.456.226-.134 0-.275.045-.313.099-.081.114-.192.124-.446.039zM11.85 38.489c0-.054.09-.098.199-.097.17.001.174.015.028.097-.215.121-.227.121-.227 0zm181.945-4.031c.082-.029.18-.025.218.008s-.029.056-.149.052c-.133-.005-.16-.028-.069-.06zm.931-.289c0-.162.316-.18.732-.042.452.15.345.255-.22.216-.343-.024-.512-.081-.512-.174zm-2.112.072c.113-.16.52-.201.52-.052 0 .083-.117.139-.291.139-.16 0-.263-.039-.229-.087zm.861-.111c-.127-.072-.061-.096.256-.098.235-.001.426.043.426.098 0 .126-.458.126-.682 0zM3.889 22.537c0-.054.051-.099.114-.099s.114.045.114.099-.051.099-.114.099-.114-.045-.114-.099zm-.825-1.849a.5.5 0 0 1 .284 0c.078.027.014.05-.142.05s-.22-.023-.142-.05zm1.706-1.193a1.86 1.86 0 0 1 .512 0c.141.024.026.043-.256.043s-.397-.019-.256-.043zm5.26-.8c0-.042.422-.13.938-.195l1.212-.186c.17-.043.247-.032.204.029-.038.054-.52.155-1.07.224l-1.114.157-.142.039c-.016.004-.028-.027-.028-.069zm165.874-.914c-.203-.076-.195-.086.079-.092.168-.004.337.038.376.092.084.118-.139.118-.455 0zm-165.077-.58c0-.047.514-.136 1.141-.198 1.414-.14 1.668-.143 1.523-.017-.061.053-.672.136-1.359.184l-1.277.102c-.016.008-.028-.024-.028-.071zm171.459-1.186c-.033-.045.015-.083.107-.083s.165.037.165.083-.048.083-.107.083-.133-.037-.165-.083zm-15.216-.183c.082-.029.18-.025.218.008s-.03.056-.15.052c-.132-.005-.159-.028-.068-.06zm17.649-.13c0-.054.09-.098.199-.098.17.001.174.015.028.098-.214.121-.227.121-.227 0zm-.455-.154c0-.024.051-.044.114-.044s.114.047.114.105-.052.077-.114.044-.114-.081-.114-.105zm-6.482-.69c-.157-.038-.643-.106-1.081-.152s-.975-.13-1.194-.187l-.398-.096c0 .038-.779-.174-1.166-.317-.587-.217-.624-.384-.085-.384.278 0 .398-.045.398-.149 0-.152-.509-.213-1.354-.16-.368.023-1.418-.148-1.659-.27-.179-.091.395-.194 1.143-.204.487-.007.902.063 1.415.238.399.136.831.248.96.249.186.001.201.02.069.093-.091.05-.206.069-.256.042s-.091-.007-.091.045c0 .089.249.151 1.118.281.208.031.406.119.44.196.05.114.094.116.24.013s.167-.101.111.03c-.049.114-.001.152.178.139.135-.009.415.024.622.073.262.062.427.054.54-.028.092-.066.163-.075.163-.02 0 .109.867.422 1.17.422.107 0 .195.061.195.136 0 .101-.153.128-.597.108a6.18 6.18 0 0 1-.881-.097zm-4.679-3.593c.082-.024.203.004.269.061.085.073.04.086-.149.043-.154-.035-.205-.08-.12-.105zM35.733 10.87c0-.041.155-.084.345-.095.197-.012.316.02.277.074-.079.112-.623.13-.623.021zm137.043-.624l-.284-.008.265-.093c.3-.105.816-.024.816.127 0 .055-.115.073-.256.04a3.27 3.27 0 0 0-.541-.067zm-136.133.021c0-.045.077-.083.171-.083s.171.037.171.083-.077.083-.171.083-.171-.037-.171-.083zm-.476.015c.082-.029.18-.025.218.008s-.029.056-.149.052c-.133-.005-.16-.028-.069-.06zm134.655-.198c.082-.029.18-.025.218.008s-.03.056-.15.052c-.132-.005-.159-.028-.068-.06zm12.759-.13c0-.054.051-.099.113-.099s.114.045.114.099-.051.099-.114.099-.113-.045-.113-.099zm-2.957-.26c0-.111.213-.014.275.125s.043.142-.102.037c-.095-.069-.173-.142-.173-.163zm-1.138.012c0-.082.021-.149.045-.149s.074.067.11.149.016.149-.044.149-.111-.067-.111-.149zM30.594 6.319c.082-.029.18-.025.218.008s-.029.056-.149.052c-.133-.005-.159-.028-.069-.06zm104.714-2.006c-.036-.051-.019-.117.038-.148s.133.011.169.092c.07.161-.1.207-.207.056zm53.982 42.523c.065-.068.074-.125.019-.127s-.003-.051.114-.111c.3-.152.034-.282-.554-.271-.307.006-.381.029-.227.073.216.061.378.314.199.311-.334-.005-.575-.135-.523-.281s.037-.141-.106.01c-.194.205-1.06.243-1.135.049-.038-.098-.084-.098-.224.003-.222.159-.352.546-.164.485.073-.023.116-.103.096-.176-.026-.093.027-.084.174.032.168.133.412.162 1.211.146.635-.013 1.044-.065 1.12-.144zm1.561-.218c.151-.082.079-.302-.1-.302-.13 0-.244.28-.137.337.047.025.154.009.237-.035zm-2.406-.797c.125-.175.112-.2-.115-.213l-.428-.031c-.303-.029-.36.062-.16.254.253.243.524.239.703-.01zm-68.894-.737c0-.024-.051-.071-.113-.105s-.114-.014-.114.044.051.105.114.105.113-.02.113-.044zm-1.334-.068c-.077-.068-.169-.098-.204-.068s.028.086.14.123c.162.054.175.042.064-.055zm61.042-.273c0-.048-.079-.144-.175-.214-.137-.099-.206-.1-.312-.008s-.099.14.033.212c.214.118.454.123.454.01zm-128.4-.904c0-.055-.074-.099-.164-.099s-.196.045-.234.099.035.099.164.099.234-.045.234-.099zm1.933-.105c0-.113-.305-.124-.383-.014-.031.043.043.085.164.093s.22-.027.22-.078zm112.786-.16c.102-.232-.054-.266-.447-.098-.205.088-.321.167-.259.175.48.063.653.044.706-.077zm-98.342-.23c0-.054-.023-.099-.05-.099s-.082.045-.12.099-.016.099.05.099.12-.044.12-.099zm1.64-.086c.049-.069.058-.152.021-.185-.102-.089-.213.042-.158.185.039.101.065.101.137 0zm-.417.02c.233-.082.161-.217-.085-.161-.125.029-.227.091-.227.139 0 .095.089.101.313.022zm-54.524-.496c.131-.114.083-.231-.095-.231-.094 0-.17.067-.17.149 0 .155.134.197.265.082zm141.142-.607c.031-.043-.044-.085-.166-.093s-.193.027-.156.078c.08.114.246.121.322.015zm-1.025-.17c-.036-.081-.149-.151-.252-.155l-.699-.052c-.369-.032-.464-.017-.341.056.141.083.143.101.01.102-.089.001-.13.029-.091.063s.379.078.755.098c.569.03.672.012.618-.111zm46.413-.24c.084-.119-.13-.236-.282-.154-.127.069-.043.247.116.247.055 0 .13-.041.166-.092zm-1.076-2.577c0-.051-.051-.12-.112-.154s-.084.005-.045.093c.075.172.157.203.157.061zm-.834-.051c0-.079-.043-.121-.097-.092s-.067.094-.031.144c.092.13.128.115.128-.052zM.363 26.203c.094-.053.119-.096.057-.096s-.19.043-.284.096-.119.096-.057.096.19-.043.284-.096zM187.22 18.85c0-.043-.102-.078-.227-.078s-.228.042-.228.093.102.086.228.078.227-.05.227-.093zm-4.763-1.455l.267-.188-.68-.079-1.278-.084c-.328-.003-.597-.036-.597-.073 0-.077-.678.076-.783.178-.039.037.088.041.281.009a1.24 1.24 0 0 1 .682.095c.182.084.6.157.929.162s.597.045.597.089c0 .142.309.085.582-.108zm1.434.029c-.038-.033-.136-.037-.218-.008-.091.032-.064.055.069.06.12.004.187-.019.149-.052zm2.069-1.369c.005-.104-.022-.163-.06-.13s-.042.118-.009.19c.037.079.064.056.069-.06zm-3.106-.833c-.032-.045.047-.159.175-.255.229-.171.221-.178-.471-.463-.834-.344-.911-.351-.911-.092 0 .122.077.199.199.2.162.001.169.018.038.09-.088.049-.254.073-.369.054s-.209.01-.209.066.166.093.37.083l.597-.006c.189.01.199.028.057.108s-.142.096.028.098c.11.001.199.046.199.101s.08.099.177.099.152-.037.12-.081zm-1.454-.8c.114-.062.11-.103-.022-.198-.184-.133-.33-.017-.204.162.046.064.145.08.226.036zm3.943-4.172c.039-.055-.006-.099-.1-.099s-.202.045-.241.099.007.099.101.099.202-.045.24-.099zm-2.329-.444c-.164-.172-.229-.19-.229-.062 0 .049.084.117.186.151.156.052.163.038.043-.088zM22.281 8.209c-.133-.116-.861-.207-1.008-.126-.085.047-.102.09-.04.096.612.061 1.1.075 1.048.03zm.691-.122c.095-.052.024-.081-.199-.081-.19 0-.346.037-.346.083 0 .105.353.105.545-.002zm2.924-.126c.487-.095 1.669-.163 3.877-.223.756-.021 1.485-.089 1.618-.151.146-.068.655-.102 1.269-.086l1.026.005c0-.034-.662-.325-.74-.325-.038 0-.038.045.001.099s-.075.099-.278.099c-.191 0-.348-.045-.348-.099s-.054-.099-.12-.099-.082.056-.035.124c.063.092.043.098-.079.024-.09-.055-.266-.095-.392-.089l-.831.026c-.332.008-.58.048-.551.089s-.262.068-.647.06-.79.027-.899.078c-.133.062-.199.056-.199-.016 0-.06-.062-.075-.137-.034s-.575.086-1.109.101l-.971.039c0 .006-.256.026-.569.044l-.597.054c-.027.021-.144.051-.341.087-.09.017.443.305.54.291l.512-.097zm4.606-.495c0-.048.099-.087.221-.087s.248.039.282.087-.066.087-.221.087-.282-.039-.282-.087zm-6.083-.286c.039-.055.119-.075.177-.044s.106.012.106-.042c0-.192-.183-.195-.319-.005-.076.105-.114.192-.086.192s.083-.045.123-.101zm2.435-.386c.12-.104.242-.169.271-.144s.302.061.607.079c.528.032 1.182-.172 1.016-.317-.133-.116-.918-.089-1.09.038s-.496.133-.639.008c-.121-.105-.701-.082-.781.031-.109.154.053.495.236.495.09 0 .261-.085.381-.19zm-1.174.076c.048-.068.031-.088-.042-.048-.068.037-.156.021-.195-.034-.106-.149-.248-.122-.248.048s.367.2.485.034zm132.964-.738c-.038-.033-.136-.036-.218-.008-.09.032-.063.055.069.06.12.004.187-.019.149-.052zm-22.942-2.813c0-.054-.023-.099-.05-.099s-.082.045-.121.099-.016.099.05.099.121-.045.121-.099zm-2.652.01c.183-.118.14-.286-.063-.24-.129.029-.211-.011-.223-.109l-.038-.304c-.01-.082-.113-.154-.228-.161s-.246-.022-.293-.033l-.427-.1c-.417-.098-.644-.244-.56-.361.034-.048-.039-.088-.163-.088s-.251.056-.282.124c-.04.086-.087.091-.152.018-.167-.189-.515-.248-.699-.118-.147.104-.161.101-.08-.015.074-.107.049-.125-.102-.074a1.36 1.36 0 0 1-.352.066c-.084 0-.184.085-.222.188-.044.121-.141.171-.273.141-.29-.066-.26-.311.032-.264.232.037.232.036.01-.056-.125-.052-.401-.097-.612-.101a11.76 11.76 0 0 1-1.081-.104l-4.619-.45-1.478-.098-3.299-.204-1.819-.115c-.977-.072-2.516-.077-2.73-.01-.094.03-.388.088-.654.13s-.483.109-.483.149.126.183.281.318c.229.199.388.243.854.235.34-.006.556.031.533.091s-.432.104-.913.108c-.757.007-1.261.135-1.089.277.077.063 1.585.126 1.585.066 0-.029.345-.04.767-.023a9.74 9.74 0 0 0 1.421-.059c.359-.05.676-.069.706-.043s.274.056.542.068a5.17 5.17 0 0 1 .802.097c.187.046.373.034.459-.028.079-.057.639-.115 1.244-.127.748-.016 1.076-.057 1.026-.13-.04-.059.014-.045.12.03.133.094.337.116.656.072.303-.042.437-.03.39.037-.08.114-.065.116.965.14.407.01.855.052.995.095s.256.041.256-.003.128-.081.285-.081.284.033.284.074.08.074.177.074.151-.038.118-.084c-.079-.111 1.09.052 1.174.164.156.205 2.284.413 2.284.223 0-.058.054-.105.12-.105s.091.042.055.092c-.102.145.159.234.328.112.114-.082.167-.077.21.02.037.084.224.122.525.107.257-.013.468.019.468.07 0 .164.584.056.698-.128.06-.098.159-.152.219-.119s.084.096.052.141.017.107.108.137.197.012.235-.041c.042-.059.187-.039.373.052.35.17 1.438.35 1.577.261zm1.628-.45c0-.174-.068-.2-.165-.062-.036.051-.014.12.05.154s.115-.007.115-.092zm-.428-.171c-.066-.058-.188-.085-.27-.061s-.033.07.121.105c.189.043.233.03.149-.043zm-39.178-.251c.141-.024.256-.077.256-.119 0-.121-.494-.055-.543.072-.024.064-.027.11-.007.103a4.04 4.04 0 0 1 .294-.056zm2.36-.227c-.313-.117-.492-.117-.284 0a.78.78 0 0 0 .341.091c.112-.004.093-.034-.057-.091zm-.689.009c.035-.049-.039-.066-.164-.038-.266.06-.299.128-.064.128.09 0 .193-.04.228-.09zm14.641-.224c.179-.157.098-.168-1.308-.175l-1.752-.051c-.139-.023-.28-.005-.312.04s-.216.074-.407.062c-.518-.031-.52.113-.003.156.244.02.42.003.391-.039-.094-.132.081-.083.26.072.193.169.673.199.78.049.046-.066.145-.064.293.005.252.117.489.038.373-.126-.051-.071-.022-.078.084-.02.087.048.441.111.785.14.492.041.666.017.816-.114zm-9.118.116c0-.054-.023-.099-.051-.099s-.081.045-.12.099-.016.099.05.099.121-.045.121-.099zm4.549-.198c.102-.058.116-.097.035-.098-.075-.001-.167.043-.206.098-.087.123-.048.123.171 0zm-44.421-.014c-.059-.083.374-.181.462-.104.122.107.628.127.628.025 0-.063.324-.078.881-.041.684.045.971.022 1.279-.104.219-.089.312-.141.206-.116s-.208.007-.227-.041-.113-.101-.206-.118-.208-.077-.254-.131-.084-.001-.085.118c-.002.205-.019.209-.314.075-.281-.128-.329-.125-.47.031-.15.165-.154.164-.089 0 .053-.134.006-.173-.207-.173-.151 0-.327.078-.391.173s-.117.118-.119.05c-.004-.13-.345-.179-.345-.05 0 .041-.387.072-.86.069s-.885.03-.916.074-.166.08-.3.08c-.195 0-.215.025-.101.124.142.124 1.515.182 1.429.061h0zm-1.867-.003c0-.045-.038-.086-.085-.089l-.449-.048c-.45-.051-.61.119-.177.188.428.069.712.048.712-.051zm8.188-.33c0-.054.192-.099.427-.099s.464.045.51.099c.056.066.084.066.086 0 .002-.124.684-.153.684-.029 0 .05.046.066.103.035.108-.058 1.109-.152 2.171-.203l.626-.052c0-.066 1.496-.067 1.592-.001.171.118 1.308.201 1.308.095 0-.05.077-.092.171-.092s.171.043.171.096c0 .06.801.078 2.132.049l2.407-.046a3.39 3.39 0 0 0 .654-.09c.228-.055.38-.055.38-.001 0 .09.398.075.506-.019.031-.027.549-.033 1.15-.014.725.023 1.148-.004 1.254-.081.125-.091.161-.086.162.02.001.086.033.098.085.032s.697-.108 1.619-.116l5.686-.069 6.511-.07 2.36-.075c0-.034.281-.062.625-.062s.626.033.625.074.055.074.121.074.089-.045.05-.099.01-.099.107-.099.177-.045.177-.099.055-.099.121-.099.089.045.05.099.084.098.306.098c.285-.001.335-.025.206-.098s-.132-.096-.021-.098.112-.036-.02-.15c-.094-.082-.276-.149-.406-.149s-.236-.048-.236-.106-.098-.079-.241-.039c-.163.045-.217.031-.164-.043.043-.06.047-.11.01-.11s-.106.092-.153.204l-.087.204-.3-.206c-.205-.141-.325-.17-.379-.094s-.107.072-.174-.023c-.078-.109-.858-.134-4.166-.131l-6.117.067-4.151.121-5.349.206c-.209.113-1.126.213-1.264.138-.085-.046-.185-.03-.236.039-.066.089-.117.081-.2-.03-.062-.082-.113-.104-.114-.05-.001.063-.705.095-1.907.087-1.9-.012-5.146.148-5.146.254 0 .031-.397.051-.881.045-.831-.01-2.744.125-3.083.219-.125.034-.127.071-.012.192s.113.142-.016.106a8.19 8.19 0 0 0-.476-.104c-.196-.037-.292-.107-.252-.182.036-.067.006-.051-.067.034-.107.125-.253.141-.764.08-.359-.042-.718-.035-.831.018a1.67 1.67 0 0 1-.52.106c-.295.012-.299.017-.046.059.212.035.238.065.114.134-.176.097-.028.109 1.574.129.559.007.938-.028.938-.087zm33.054-.891c.036-.081.111-.123.167-.093.161.086.119.241-.065.241-.101 0-.141-.058-.102-.148zm6.633.339c-.117-.191-.11-.212.051-.158s.168.032.052-.156l-.134-.219-.113.221c-.13.253-.365.29-.461.072-.036-.082-.024-.149.026-.149s.091-.067.091-.15c0-.122-.103-.138-.55-.086-.375.043-.549.028-.549-.048 0-.062-.18-.112-.405-.112-.265 0-.378.038-.328.109.055.077.009.077-.161-.002-.198-.092-.227-.086-.172.04.037.083.112.151.168.151s.102.045.102.099c0 .207-.206.087-.342-.198-.158-.333-.162-.335-.447-.202-.144.067-.188.172-.149.351.031.14.011.242-.043.226s-.125.015-.157.068.237.104.662.114c.657.015.729-.004.843-.221.122-.234.542-.337.542-.133 0 .058-.05.078-.112.044s-.084.004-.047.087.139.123.244.087c.117-.039.152-.021.1.053-.091.129.287.224.725.183.157-.015.378.013.492.061.186.079.194.065.072-.133zM105.29.657c-.032-.045.014-.083.102-.083s.134.037.102.083-.078.083-.102.083-.07-.037-.102-.083zm4.643.391c.035-.048-.039-.111-.164-.139-.151-.034-.204-.104-.157-.209.038-.087.021-.158-.038-.158-.156 0-.13.324.037.469s.238.156.322.037zm-.697-.275c-.032-.073-.073-.132-.091-.132s-.059.059-.091.132.009.132.091.132.123-.059.091-.132zm-.439-.278c-.121-.08-.333-.147-.47-.149-.271-.003-.444.147-.274.238.058.031.126.006.15-.057.032-.086.104-.086.286-.001.35.163.57.14.308-.032h0zm1.512-.013c-.038-.033-.136-.036-.218-.008-.091.032-.064.055.068.06.12.004.187-.019.15-.052zm-5.997-.039c.145-.082.141-.096-.029-.098-.109-.001-.199.043-.199.098 0 .121.013.121.228 0zm.61-.151c.055-.123.026-.132-.158-.046-.264.123-.289.197-.066.197.087 0 .188-.068.224-.151z" fill="#86f9b3"/></svg>